<svg width="3374" height="493" viewBox="0 0 3374 493" fill="none" xmlns="http://www.w3.org/2000/svg">
<path d="M810.3 0L755.329 0L553.578 392.715L287.488 392.715L140.835 246.067L282.193 100.336L619.216 100.336L670.321 0L239.717 0L0 247.139L245.689 492.84L614.922 492.84L783.217 165.299L953.695 492.84H1066.81L810.3 0Z" fill="#0D0D0D"/>
<path d="M783.697 309.867L689.688 492.834H878.924L783.697 309.867Z" fill="#99F500"/>
<path d="M1809.8 492.834H1998.88L1904.68 309.867L1809.8 492.834Z" fill="#99F500"/>
<path d="M1494.17 0V329.262L1189.73 0L1091.51 0V492.84H1191.84V150.095L1508.75 492.83H1594.51V0L1494.17 0Z" fill="#0D0D0D"/>
<path d="M1874.63 0L1619.04 492.84H1732.08L1904.97 159.467L2076.62 492.84L2189.49 492.84L1935.72 0L1874.63 0Z" fill="#0D0D0D"/>
<path d="M2615.62 0V329.262L2311.18 0L2212.96 0V492.84H2313.3V150.095L2630.21 492.83H2715.97V100.336L2961.22 100.336L3100.9 247.53L2957.37 395.466H2789.95V492.84H3002.67L3239.94 248.301L3004.32 0L2615.62 0Z" fill="#0D0D0D"/>
<path d="M3373.61 0L3273.27 0V492.835H3373.61V0Z" fill="#0D0D0D"/>
</svg>
